<svg id="Analytics_white" data-name="Analytics white" xmlns="http://www.w3.org/2000/svg" width="42.39" height="36" viewBox="0 0 42.39 36">
  <path id="Tracé_7452" data-name="Tracé 7452" d="M33.236,217.914v6.869a.764.764,0,0,1-.762.762H27.162a.764.764,0,0,1-.762-.762V212.7l3.854,3.854A4.739,4.739,0,0,0,33.236,217.914Z" transform="translate(6.282 -189.546)" fill="#fff"/>
  <path id="Tracé_7453" data-name="Tracé 7453" d="M120.436,211.8V223.97a.764.764,0,0,1-.762.762h-5.312a.764.764,0,0,1-.762-.762v-7.163a4.611,4.611,0,0,0,3.2-1.361Z" transform="translate(-90.41 -188.743)" fill="#fff"/>
  <path id="Tracé_7454" data-name="Tracé 7454" d="M207.636,196.095v7.925a.764.764,0,0,1-.762.762h-5.312a.764.764,0,0,1-.762-.762V189.4l6.085,6.085A4.491,4.491,0,0,0,207.636,196.095Z" transform="translate(-187.103 -168.782)" fill="#fff"/>
  <path id="Tracé_7455" data-name="Tracé 7455" d="M288.5,106.8l6.336,6.336v17.276a.764.764,0,0,1-.762.762h-5.312a.764.764,0,0,1-.762-.762V107.279c.174-.152.3-.283.4-.37Z" transform="translate(-283.795 -95.174)" fill="#fff"/>
  <path id="Tracé_7456" data-name="Tracé 7456" d="M.387.414A1.462,1.462,0,0,1,1.508,0H1.65C4.121.109,6.592.239,9.063.348A1.624,1.624,0,0,1,10.206.74a1.378,1.378,0,0,1,.272.4,1.271,1.271,0,0,1-.392,1.546l-.621.631c-.425.435-.86.871-1.3,1.3L23.106,19.573l6.717-6.717a2.124,2.124,0,0,1,1.513-.631,2.081,2.081,0,0,1,1.5.631l8.948,8.937a2.135,2.135,0,0,1,0,3.026l-.4.4a2.124,2.124,0,0,1-1.513.631,2.081,2.081,0,0,1-1.5-.631L31.336,18.19l-6.717,6.717a2.129,2.129,0,0,1-3.026,0L4.73,8.034,2.825,9.928a1.455,1.455,0,0,1-1.023.544,1.314,1.314,0,0,1-.61-.163,1.549,1.549,0,0,1-.37-.272,1.743,1.743,0,0,1-.457-1.23C.3,7.207.213,5.606.137,4L.028,1.578A1.479,1.479,0,0,1,.387.414Z" transform="translate(-0.025 0)" fill="#fff"/>
</svg>
