<svg xmlns="http://www.w3.org/2000/svg" width="35.777" height="42.79" viewBox="0 0 35.777 42.79">
  <g id="App_Gray" data-name="App Gray" transform="translate(-902.395 -613.406)">
    <path id="Tracé_8533" data-name="Tracé 8533" d="M746.5,498.62v9.016H725.89V477.3H746.5v4.293h2.433v-5.3a5.283,5.283,0,0,0-5.3-5.3H728.9a5.283,5.283,0,0,0-5.3,5.3v32.2a5.283,5.283,0,0,0,5.3,5.3h14.74a5.283,5.283,0,0,0,5.3-5.3V498.62H746.5Zm-7.012,11.735h-6.44v-1.574h6.44Z" transform="translate(178.795 142.406)" fill="#706f6f"/>
    <g id="Groupe_8669" data-name="Groupe 8669" transform="translate(915.275 621.563)">
      <path id="Tracé_8534" data-name="Tracé 8534" d="M751.2,497.308l2.719-3.005-2-1.717a6.858,6.858,0,0,0,1-2.862l2.576-.143-.143-4.007-2.576.143A9.487,9.487,0,0,0,751.49,483l1.717-2-3.005-2.719-1.717,2a6.86,6.86,0,0,0-2.862-1l-.143-2.576-4.007.143.143,2.576a9.494,9.494,0,0,0-2.719,1.288l-2-1.717-2.719,3.005,2,1.717a6.859,6.859,0,0,0-1,2.862l-2.576.143.143,4.007,2.576-.143a9.489,9.489,0,0,0,1.288,2.719l-1.717,2,3.005,2.719,1.717-2a6.858,6.858,0,0,0,2.862,1l.143,2.576,4.007-.143-.143-2.576a9.491,9.491,0,0,0,2.719-1.288Zm-11.449-4.293a6.585,6.585,0,1,1,9.3-.429A6.569,6.569,0,0,1,739.756,493.014Z" transform="translate(-732.6 -476.7)" fill="#706f6f"/>
      <path id="Tracé_8535" data-name="Tracé 8535" d="M743.528,487.385a2.734,2.734,0,1,1-.143-3.864A2.859,2.859,0,0,1,743.528,487.385Z" transform="translate(-729.933 -474.076)" fill="#706f6f"/>
    </g>
  </g>
</svg>
