<svg id="dashboard_gray" data-name="dashboard gray" xmlns="http://www.w3.org/2000/svg" width="35.463" height="35.463" viewBox="0 0 35.463 35.463">
  <path id="Tracé_8618" data-name="Tracé 8618" d="M885.043,387.263a.79.79,0,0,1-.735-.735v-8.085a.79.79,0,0,1,.735-.735h8.085a.79.79,0,0,1,.735.735v8.085a.79.79,0,0,1-.735.735Zm-13.046,0a.79.79,0,0,1-.735-.735v-8.085a.79.79,0,0,1,.735-.735h8.085a.791.791,0,0,1,.735.735v8.085a.79.79,0,0,1-.735.735Zm-12.862,0a.79.79,0,0,1-.735-.735v-8.085a.79.79,0,0,1,.735-.735h8.085a.79.79,0,0,1,.735.735v8.085a.79.79,0,0,1-.735.735ZM885.043,374.4a.79.79,0,0,1-.735-.735v-8.085a.79.79,0,0,1,.735-.735h8.085a.79.79,0,0,1,.735.735v8.085a.79.79,0,0,1-.735.735ZM872,374.4a.79.79,0,0,1-.735-.735v-8.085a.79.79,0,0,1,.735-.735h8.085a.79.79,0,0,1,.735.735v8.085a.79.79,0,0,1-.735.735Zm-12.862,0a.79.79,0,0,1-.735-.735v-8.085a.79.79,0,0,1,.735-.735h8.085a.79.79,0,0,1,.735.735v8.085a.79.79,0,0,1-.735.735Zm25.908-13.046a.79.79,0,0,1-.735-.735v-8.085a.79.79,0,0,1,.735-.735h8.085a.79.79,0,0,1,.735.735v8.085a.79.79,0,0,1-.735.735Zm-13.046,0a.79.79,0,0,1-.735-.735v-8.085A.79.79,0,0,1,872,351.8h8.085a.791.791,0,0,1,.735.735v8.085a.79.79,0,0,1-.735.735Zm-12.862,0a.79.79,0,0,1-.735-.735v-8.085a.79.79,0,0,1,.735-.735h8.085a.79.79,0,0,1,.735.735v8.085a.79.79,0,0,1-.735.735Z" transform="translate(-858.4 -351.8)" fill="#706f6f"/>
</svg>
