<svg xmlns="http://www.w3.org/2000/svg" width="26.537" height="27.795" viewBox="0 0 26.537 27.795">
  <path id="deconnecting_white" data-name="deconnecting white" d="M1202.336,355.82h0a9.879,9.879,0,0,1,1.049,1.049c.315.42.629.734.944,1.154a13.045,13.045,0,0,1,2.307,7.447h0a12.893,12.893,0,0,1-3.881,9.335,13.256,13.256,0,0,1-9.335,3.881h-.1v-3.566h.1a9.178,9.178,0,0,0,6.713-2.832,9.6,9.6,0,0,0,2.832-6.713h0a9.944,9.944,0,0,0-.734-3.671c-.1-.21-.21-.315-.21-.524a8.462,8.462,0,0,0-1.783-2.517h0l-.1-.1-.1-.1h0a1.846,1.846,0,0,0-.524-.42h0c-.1-.1-.21-.21-.315-.21a1.2,1.2,0,0,1-.629-1.154h0a2.071,2.071,0,0,1,.629-1.468h0a2.072,2.072,0,0,1,1.469-.629h0a1.33,1.33,0,0,1,.629.1h0a2.288,2.288,0,0,0,.525.315h0l.1.1h0l.1.1h0c0,.1.21.21.315.42Zm-9.02,10.7h.21a1.6,1.6,0,0,0,1.049-.42,1.346,1.346,0,0,0,.42-1.049h0V352.778h0a1.6,1.6,0,0,0-.42-1.049,1.347,1.347,0,0,0-1.049-.42h-.21Zm0,12.377a13.072,13.072,0,0,1-9.335-3.881,13.256,13.256,0,0,1-3.881-9.335h0a12.874,12.874,0,0,1,1.154-5.349h0a3.134,3.134,0,0,1,.42-.839,12.907,12.907,0,0,1,2.727-3.566h0l.1-.1h0l.1-.1h0a2.784,2.784,0,0,1,.629-.524,1.451,1.451,0,0,0,.42-.315.786.786,0,0,1,.525-.1h0c.315,0,.524.1.839.1h.1a1.047,1.047,0,0,1,.524.42h0a.366.366,0,0,1,.1.21h0c0,.1.1.1.1.21a2.114,2.114,0,0,1,.315,1.154c0,.315,0,.524-.1.629a.819.819,0,0,1-.42.42h0a6.785,6.785,0,0,0-.944.839c-.315.315-.524.629-.839.944a9.436,9.436,0,0,0-2.1,5.979h0a9.179,9.179,0,0,0,2.832,6.713,10.028,10.028,0,0,0,6.608,2.832V378.9Zm0-27.8h-.21a1.6,1.6,0,0,0-1.049.42h0a1.346,1.346,0,0,0-.42,1.049h0V364.84h0a1.6,1.6,0,0,0,.42,1.049h0a1.347,1.347,0,0,0,1.049.42h.21Z" transform="translate(-1180.1 -351.1)" fill="#fff" fill-rule="evenodd"/>
</svg>
