<svg id="Parameters_white" data-name="Parameters white" xmlns="http://www.w3.org/2000/svg" width="41.155" height="32.836" viewBox="0 0 41.155 32.836">
  <path id="Tracé_7426" data-name="Tracé 7426" d="M21.468,12.372c0-.468-.067-.936-.067-1.4l2.006-2.675a11.916,11.916,0,0,0-2.14-3.812l-3.277.334a8.651,8.651,0,0,0-2.608-1.538L14.044.2A13.259,13.259,0,0,0,11.7,0C11.035,0,10.366.067,9.7.134l-1.4,3.009A10.686,10.686,0,0,0,5.618,4.681l-3.277-.4A12.823,12.823,0,0,0,.134,7.958L2.073,10.7a13.028,13.028,0,0,0-.134,1.672c0,.468.067.936.067,1.4L0,16.452a11.916,11.916,0,0,0,2.14,3.812l3.277-.334a8.651,8.651,0,0,0,2.608,1.538L9.3,24.544a13.259,13.259,0,0,0,2.341.2c.669,0,1.338-.067,2.006-.134l1.4-3.009a10.452,10.452,0,0,0,2.675-1.471l3.277.4a11.1,11.1,0,0,0,2.207-3.745l-1.873-2.742A14.079,14.079,0,0,0,21.468,12.372Zm-3.678,0A6.086,6.086,0,1,1,11.7,6.286,6.108,6.108,0,0,1,17.789,12.372Z" transform="translate(0)" fill="#fff"/>
  <path id="Tracé_7427" data-name="Tracé 7427" d="M50.3,36.37a5.041,5.041,0,0,0,.4-.869l2.14-.869a9.1,9.1,0,0,0,.067-3.009l-2.073-1a10.092,10.092,0,0,0-1-1.873l.268-2.274a9.556,9.556,0,0,0-1.338-.936,4.435,4.435,0,0,0-1.271-.6l-1.873,1.338a7.658,7.658,0,0,0-2.14-.067l-1.873-1.4a8.758,8.758,0,0,0-2.675,1.471l.2,2.274a4.747,4.747,0,0,0-.669.936,5.042,5.042,0,0,0-.4.869l-2.14.869a9.1,9.1,0,0,0-.067,3.009l2.073,1a10.091,10.091,0,0,0,1,1.873l-.268,2.274A9.557,9.557,0,0,0,40,40.315a4.435,4.435,0,0,0,1.271.6l1.873-1.338a7.658,7.658,0,0,0,2.14.067l1.873,1.4a8.758,8.758,0,0,0,2.675-1.471l-.2-2.341A3,3,0,0,0,50.3,36.37ZM48.092,35.1a4.254,4.254,0,0,1-5.818,1.538,4.314,4.314,0,0,1-1.538-5.818,4.254,4.254,0,0,1,5.818-1.538A4.314,4.314,0,0,1,48.092,35.1Z" transform="translate(-11.845 -8.214)" fill="#fff"/>
</svg>
