<svg id="user_gray" xmlns="http://www.w3.org/2000/svg" width="38.226" height="38.226" viewBox="0 0 38.226 38.226">
  <path id="Tracé_7733" data-name="Tracé 7733" d="M122.733,441.3a7.733,7.733,0,1,0,7.733,7.733A7.6,7.6,0,0,0,122.733,441.3Zm4.669,8.608h-3.5v3.647H122v-3.647h-3.5v-1.9H122v-3.647h1.9v3.647h3.5Z" transform="translate(-92.24 -422.187)" fill="#706f6f"/>
  <g id="Groupe_8438" data-name="Groupe 8438">
    <path id="Tracé_7734" data-name="Tracé 7734" d="M122.779,455.3a6.931,6.931,0,0,0,3.5-.875,13.548,13.548,0,0,0-2.188-5.106l-.292-.292v2.918h-1.9v-3.648h-3.5v-1.9h1.167a27.356,27.356,0,0,1-4.085-1.9,9.432,9.432,0,0,0-.584,2.918A8.037,8.037,0,0,0,122.779,455.3Z" transform="translate(-92.286 -420.719)" fill="#706f6f"/>
    <path id="Tracé_7735" data-name="Tracé 7735" d="M129.893,465.112a10.087,10.087,0,0,1-10.067-10.067,9.857,9.857,0,0,1,1.313-5.107,2.163,2.163,0,0,1-.146-1.021,23.774,23.774,0,0,1,1.167-5.4,3.452,3.452,0,0,0,1.167-1.313,5.246,5.246,0,0,0,.292-2.334,1.116,1.116,0,0,1-.292-.729,17.559,17.559,0,0,0,.438-3.648v-1.9c-.292-3.939-3.5-4.377-4.961-4.815a22.588,22.588,0,0,0-5.544.146,7.568,7.568,0,0,1-3.793-.729,26.437,26.437,0,0,0-.438,5.69,54.687,54.687,0,0,0,.584,5.544s-.729.146-.584,1.6a3.636,3.636,0,0,0,1.313,2.334s2.043,4.815,1.6,6.565-4.815,3.648-7.879,6.274c-3.939,2.334-4.669,10.213-4.669,10.213h34.724s-.146-.875-.292-2.188A8.267,8.267,0,0,1,129.893,465.112Z" transform="translate(-99.4 -428.2)" fill="#706f6f"/>
  </g>
</svg>
