<svg xmlns="http://www.w3.org/2000/svg" viewBox="0 0 111.27 51.61"><defs><style>.cls-1{fill:#fff;}</style></defs><title>roby</title><g id="Calque_2" data-name="Calque 2"><g id="Calque_1-2" data-name="Calque 1"><path class="cls-1" d="M12.79,11.2a2.42,2.42,0,0,1,1.77.74,2.46,2.46,0,0,1,.72,1.78v0a2.35,2.35,0,0,1-.72,1.75,2.42,2.42,0,0,1-1.77.74H11.23a6,6,0,0,0-4.37,1.8,6,6,0,0,0-1.8,4.37V38.56a2.36,2.36,0,0,1-.74,1.75A2.4,2.4,0,0,1,2.57,41H2.49a2.38,2.38,0,0,1-1.75-.73A2.36,2.36,0,0,1,0,38.56V22.43a11.14,11.14,0,0,1,3.28-7.95,10.86,10.86,0,0,1,8-3.28Zm19.59,5.11a9.45,9.45,0,0,1,7,2.9,9.54,9.54,0,0,1,2.9,7,9.49,9.49,0,0,1-2.9,7,9.85,9.85,0,0,1-14,0,9.51,9.51,0,0,1-2.87-7,9.85,9.85,0,0,1,9.86-9.9m0-5.11a14.37,14.37,0,0,0-10.55,4.38,14.38,14.38,0,0,0-4.37,10.54,14.38,14.38,0,0,0,4.37,10.55A14.36,14.36,0,0,0,32.38,41a14.36,14.36,0,0,0,10.55-4.37A14.38,14.38,0,0,0,47.3,26.12a14.38,14.38,0,0,0-4.37-10.54A14.37,14.37,0,0,0,32.38,11.2m34.49,5.11a9.43,9.43,0,0,1,7,2.9,9.5,9.5,0,0,1,2.9,7,9.46,9.46,0,0,1-2.9,7,9.39,9.39,0,0,1-7,2.9A9.85,9.85,0,0,1,57,26.21a9.85,9.85,0,0,1,9.87-9.9M54.43,0a2.47,2.47,0,0,0-1.75.71A2.41,2.41,0,0,0,52,2.49V26.21a14.31,14.31,0,0,0,4.4,10.49,14.91,14.91,0,0,0,21.06,0,14.35,14.35,0,0,0,4.38-10.55,14.35,14.35,0,0,0-4.38-10.54A14.87,14.87,0,0,0,57,15V2.49A2.39,2.39,0,0,0,56.26.71,2.43,2.43,0,0,0,54.52,0Zm56.79,23.74v-10a2.44,2.44,0,0,0-.74-1.78,2.34,2.34,0,0,0-1.75-.74h0a2.53,2.53,0,0,0-2.52,2.52V28.06a7.35,7.35,0,0,1-12.54,5.2,7.13,7.13,0,0,1-2.13-5.2V13.72a2.44,2.44,0,0,0-.74-1.78A2.41,2.41,0,0,0,89,11.2h-.08a2.39,2.39,0,0,0-1.75.74,2.44,2.44,0,0,0-.74,1.78V28.06A12.41,12.41,0,0,0,98.84,40.44a12,12,0,0,0,7.32-2.4l.06,0v2.31a6.11,6.11,0,0,1-1.81,4.38,6,6,0,0,1-4.37,1.8H98.48a2.38,2.38,0,0,0-1.77.74A2.34,2.34,0,0,0,96,49.05v.05a2.47,2.47,0,0,0,.71,1.78,2.41,2.41,0,0,0,1.77.73H100A10.79,10.79,0,0,0,108,48.33a11.11,11.11,0,0,0,3.28-7.95V24.26a2.87,2.87,0,0,0,0-.52"/></g></g></svg>